<svg xmlns="http://www.w3.org/2000/svg" viewBox="0 0 64 64">
  <!-- Hintergrund -->
  <circle cx="32" cy="32" r="32" fill="#1a1a2e"/>

  <!-- Äußerer Ring (Engine Cowling) -->
  <circle cx="32" cy="32" r="29" fill="none" stroke="#4fc3f7" stroke-width="2"/>

  <!-- Engine Inner Ring -->
  <circle cx="32" cy="32" r="27" fill="#0d0d1a"/>

  <!-- 20 Turbinenschaufeln - dünn und gebogen wie echte Fan Blades -->
  <g stroke="#4fc3f7" stroke-width="0.5" fill="#4fc3f7">
    <!-- Jedes Blatt ist dünn und gebogen -->
    <path d="M32 6 Q34 15, 33.5 24 L32 25.5 L31.5 24 Q32 15, 32 6" fill="#4fc3f7"/>
    <path d="M32 6 Q34 15, 33.5 24 L32 25.5 L31.5 24 Q32 15, 32 6" transform="rotate(18, 32, 32)"/>
    <path d="M32 6 Q34 15, 33.5 24 L32 25.5 L31.5 24 Q32 15, 32 6" transform="rotate(36, 32, 32)"/>
    <path d="M32 6 Q34 15, 33.5 24 L32 25.5 L31.5 24 Q32 15, 32 6" transform="rotate(54, 32, 32)"/>
    <path d="M32 6 Q34 15, 33.5 24 L32 25.5 L31.5 24 Q32 15, 32 6" transform="rotate(72, 32, 32)"/>
    <path d="M32 6 Q34 15, 33.5 24 L32 25.5 L31.5 24 Q32 15, 32 6" transform="rotate(90, 32, 32)"/>
    <path d="M32 6 Q34 15, 33.5 24 L32 25.5 L31.5 24 Q32 15, 32 6" transform="rotate(108, 32, 32)"/>
    <path d="M32 6 Q34 15, 33.5 24 L32 25.5 L31.5 24 Q32 15, 32 6" transform="rotate(126, 32, 32)"/>
    <path d="M32 6 Q34 15, 33.5 24 L32 25.5 L31.5 24 Q32 15, 32 6" transform="rotate(144, 32, 32)"/>
    <path d="M32 6 Q34 15, 33.5 24 L32 25.5 L31.5 24 Q32 15, 32 6" transform="rotate(162, 32, 32)"/>
    <path d="M32 6 Q34 15, 33.5 24 L32 25.5 L31.5 24 Q32 15, 32 6" transform="rotate(180, 32, 32)"/>
    <path d="M32 6 Q34 15, 33.5 24 L32 25.5 L31.5 24 Q32 15, 32 6" transform="rotate(198, 32, 32)"/>
    <path d="M32 6 Q34 15, 33.5 24 L32 25.5 L31.5 24 Q32 15, 32 6" transform="rotate(216, 32, 32)"/>
    <path d="M32 6 Q34 15, 33.5 24 L32 25.5 L31.5 24 Q32 15, 32 6" transform="rotate(234, 32, 32)"/>
    <path d="M32 6 Q34 15, 33.5 24 L32 25.5 L31.5 24 Q32 15, 32 6" transform="rotate(252, 32, 32)"/>
    <path d="M32 6 Q34 15, 33.5 24 L32 25.5 L31.5 24 Q32 15, 32 6" transform="rotate(270, 32, 32)"/>
    <path d="M32 6 Q34 15, 33.5 24 L32 25.5 L31.5 24 Q32 15, 32 6" transform="rotate(288, 32, 32)"/>
    <path d="M32 6 Q34 15, 33.5 24 L32 25.5 L31.5 24 Q32 15, 32 6" transform="rotate(306, 32, 32)"/>
    <path d="M32 6 Q34 15, 33.5 24 L32 25.5 L31.5 24 Q32 15, 32 6" transform="rotate(324, 32, 32)"/>
    <path d="M32 6 Q34 15, 33.5 24 L32 25.5 L31.5 24 Q32 15, 32 6" transform="rotate(342, 32, 32)"/>
  </g>

  <!-- Spinner Cone (Zentrum) - konisch wie bei echten Turbinen -->
  <circle cx="32" cy="32" r="6" fill="#4fc3f7"/>
  <circle cx="32" cy="32" r="4" fill="#3ba8d8"/>
  <circle cx="32" cy="32" r="2" fill="#2d8ab8"/>
  <circle cx="31" cy="31" r="1" fill="#7fd8fc" opacity="0.7"/>
</svg>
