<svg xmlns="http://www.w3.org/2000/svg" viewBox="0 0 64 64">
  <!-- Hintergrund: dunkler Kreis (Cockpit-Style) -->
  <circle cx="32" cy="32" r="30" fill="#1a1a2e"/>

  <!-- Äußerer Ring (Turbinen-Gehäuse) -->
  <circle cx="32" cy="32" r="26" fill="none" stroke="#4fc3f7" stroke-width="3"/>

  <!-- Innerer Kreis (Spinner/Nabe) -->
  <circle cx="32" cy="32" r="6" fill="#4fc3f7"/>

  <!-- Turbinenschaufeln -->
  <g fill="#4fc3f7" opacity="0.9">
    <path d="M32 10 L35 26 L32 28 L29 26 Z"/>
    <path d="M32 10 L35 26 L32 28 L29 26 Z" transform="rotate(60, 32, 32)"/>
    <path d="M32 10 L35 26 L32 28 L29 26 Z" transform="rotate(120, 32, 32)"/>
    <path d="M32 10 L35 26 L32 28 L29 26 Z" transform="rotate(180, 32, 32)"/>
    <path d="M32 10 L35 26 L32 28 L29 26 Z" transform="rotate(240, 32, 32)"/>
    <path d="M32 10 L35 26 L32 28 L29 26 Z" transform="rotate(300, 32, 32)"/>
  </g>

  <!-- Checkmark Overlay (klein, rechts unten) -->
  <circle cx="50" cy="50" r="12" fill="#00e676"/>
  <path d="M44 50 L48 54 L56 44" fill="none" stroke="white" stroke-width="3" stroke-linecap="round" stroke-linejoin="round"/>
</svg>
